<svg width="236" height="232" viewBox="0 0 236 232" fill="none" xmlns="http://www.w3.org/2000/svg">
<path d="M179.921 231.52C167.601 231.52 157.335 229.187 149.121 224.52C140.908 219.853 134.748 213.133 130.641 204.36C126.535 195.587 124.481 185.227 124.481 173.28V165.72H154.161C154.161 166.467 154.161 167.307 154.161 168.24C154.161 168.987 154.161 169.827 154.161 170.76C154.348 177.48 155.095 183.547 156.401 188.96C157.895 194.373 160.415 198.667 163.961 201.84C167.695 205.013 173.015 206.6 179.921 206.6C187.201 206.6 192.708 204.92 196.441 201.56C200.175 198.013 202.695 193.067 204.001 186.72C205.308 180.373 205.961 173.093 205.961 164.88C205.961 152.933 203.721 143.227 199.241 135.76C194.948 128.107 187.295 123.907 176.281 123.16C175.721 122.973 174.975 122.88 174.041 122.88C173.295 122.88 172.641 122.88 172.081 122.88V92.92C172.641 92.92 173.295 92.92 174.041 92.92C174.788 92.92 175.441 92.92 176.001 92.92C186.641 92.5467 194.295 89.7467 198.961 84.52C203.628 79.2933 205.961 70.6133 205.961 58.48C205.961 48.2133 204.188 40 200.641 33.84C197.281 27.68 190.468 24.6 180.201 24.6C169.935 24.6 163.121 28.0533 159.761 34.96C156.401 41.68 154.535 50.36 154.161 61C154.161 61.7467 154.161 62.5867 154.161 63.52C154.161 64.2667 154.161 65.0133 154.161 65.76H124.481V58.2C124.481 46.0667 126.535 35.7067 130.641 27.12C134.748 18.5333 140.908 11.9067 149.121 7.23998C157.521 2.57332 167.881 0.23999 180.201 0.23999C192.708 0.23999 203.068 2.57332 211.281 7.23998C219.495 11.9067 225.655 18.6267 229.761 27.4C233.868 35.9867 235.921 46.3467 235.921 58.48C235.921 72.1067 232.935 83.0267 226.961 91.24C221.175 99.4533 213.335 105.053 203.441 108.04C210.348 110.093 216.135 113.64 220.801 118.68C225.655 123.72 229.388 130.16 232.001 138C234.615 145.653 235.921 154.613 235.921 164.88C235.921 178.32 234.055 190.08 230.321 200.16C226.588 210.053 220.615 217.8 212.401 223.4C204.188 228.813 193.361 231.52 179.921 231.52Z" fill="#F2F2F2"/>
<rect y="2" width="80" height="80" fill="#68B738"/>
<path fill-rule="evenodd" clip-rule="evenodd" d="M46.6173 27.0761C46.991 26.9214 47.4211 27.0069 47.7071 27.2929C48.6156 28.2014 49.8038 30.1706 50.7659 33.2108C51.7373 36.2804 52.5 40.5081 52.5 46C52.5 46.5523 52.0523 47 51.5 47H48V56C48 56.5523 47.5523 57 47 57C46.4477 57 46 56.5523 46 56V28C46 27.5956 46.2436 27.2309 46.6173 27.0761ZM48 45H50.4912C50.4053 40.1836 49.7051 36.4875 48.8591 33.8142C48.5807 32.9346 48.2885 32.1715 48 31.519V45Z" fill="white"/>
<path fill-rule="evenodd" clip-rule="evenodd" d="M34 27C34.5523 27 35 27.4477 35 28V56C35 56.5523 34.5523 57 34 57C33.4477 57 33 56.5523 33 56V28C33 27.4477 33.4477 27 34 27Z" fill="white"/>
<path fill-rule="evenodd" clip-rule="evenodd" d="M29.5 27C30.0523 27 30.5 27.4477 30.5 28V33.5C30.5 34.0569 30.692 34.8152 31.2009 35.4166C31.68 35.9828 32.5145 36.5 33.9999 36.5C34.5522 36.5 34.9999 36.9477 34.9999 37.5C34.9999 38.0523 34.5522 38.5 33.9999 38.5C31.9855 38.5 30.57 37.7672 29.6741 36.7084C28.808 35.6848 28.5 34.4431 28.5 33.5V28C28.5 27.4477 28.9477 27 29.5 27Z" fill="white"/>
<path fill-rule="evenodd" clip-rule="evenodd" d="M38.5 27C37.9477 27 37.5 27.4477 37.5 28V33.5C37.5 34.0569 37.308 34.8152 36.7991 35.4166C36.32 35.9828 35.4854 36.5 33.9999 36.5C33.4476 36.5 33.0001 36.9477 33.0001 37.5C33.0001 38.0523 33.4476 38.5 33.9999 38.5C36.0144 38.5 37.43 37.7672 38.3259 36.7084C39.192 35.6848 39.5 34.4431 39.5 33.5V28C39.5 27.4477 39.0523 27 38.5 27Z" fill="white"/>
</svg>
