<svg width="280" height="60" viewBox="0 0 280 60" fill="none" xmlns="http://www.w3.org/2000/svg">
<rect x="0.5" width="60" height="60" fill="#68B738"/>
<ellipse cx="35.7042" cy="24.3299" rx="1.0873" ry="1.08512" fill="white"/>
<ellipse cx="24.8311" cy="24.3299" rx="1.08731" ry="1.08512" fill="white"/>
<ellipse cx="24.8311" cy="37.3512" rx="1.08731" ry="1.08512" fill="white"/>
<ellipse cx="30.2677" cy="39.5215" rx="1.0873" ry="1.08512" fill="white"/>
<ellipse cx="21.5692" cy="30.7748" rx="1.08731" ry="1.08512" fill="white"/>
<ellipse cx="38.9661" cy="30.7748" rx="1.0873" ry="1.08512" fill="white"/>
<ellipse cx="35.7042" cy="37.3512" rx="1.0873" ry="1.08512" fill="white"/>
<mask id="path-9-inside-1_95_37" fill="white">
<path fill-rule="evenodd" clip-rule="evenodd" d="M35.4215 42.0581C35.8298 41.8622 36.3226 41.9298 36.6385 42.2542L38.4644 44.1292C38.7319 44.4039 39.1734 44.4039 39.441 44.1292C39.6987 43.8645 39.6987 43.4427 39.441 43.1781L38.0843 41.7849C37.6584 41.3475 37.7228 40.6356 38.182 40.2333C40.8238 37.9195 42.5 34.4688 42.5 30.6145C42.5 23.6477 37.0235 18 30.2678 18C23.5122 18 18.0356 23.6477 18.0356 30.6145C18.0356 34.4288 19.6773 37.8477 22.2717 40.1608C22.7244 40.5644 22.7849 41.2708 22.3617 41.7054L20.9276 43.1781C20.6698 43.4427 20.6698 43.8645 20.9276 44.1291C21.1951 44.4039 21.6366 44.4039 21.9042 44.1292L23.7838 42.199C24.1025 41.8718 24.6004 41.8061 25.0102 42.0076C26.603 42.7907 28.3858 43.229 30.2678 43.229C32.109 43.229 33.8553 42.8095 35.4215 42.0581ZM30.2678 41.8274C36.2728 41.8274 41.1409 36.8072 41.1409 30.6145C41.1409 24.4218 36.2728 19.4016 30.2678 19.4016C24.2628 19.4016 19.3948 24.4218 19.3948 30.6145C19.3948 36.8072 24.2628 41.8274 30.2678 41.8274ZM29.5083 30.298V26.5001V22.9409C29.5083 22.5094 29.8581 22.1596 30.2895 22.1596C30.721 22.1596 31.0708 22.5094 31.0708 22.9409V26.5001V30.298V30.8406V31.1226C31.0708 31.5661 30.7113 31.9257 30.2677 31.9257C29.8483 31.9257 29.5083 31.5857 29.5083 31.1663V30.8406V30.298Z"/>
</mask>
<path fill-rule="evenodd" clip-rule="evenodd" d="M35.4215 42.0581C35.8298 41.8622 36.3226 41.9298 36.6385 42.2542L38.4644 44.1292C38.7319 44.4039 39.1734 44.4039 39.441 44.1292C39.6987 43.8645 39.6987 43.4427 39.441 43.1781L38.0843 41.7849C37.6584 41.3475 37.7228 40.6356 38.182 40.2333C40.8238 37.9195 42.5 34.4688 42.5 30.6145C42.5 23.6477 37.0235 18 30.2678 18C23.5122 18 18.0356 23.6477 18.0356 30.6145C18.0356 34.4288 19.6773 37.8477 22.2717 40.1608C22.7244 40.5644 22.7849 41.2708 22.3617 41.7054L20.9276 43.1781C20.6698 43.4427 20.6698 43.8645 20.9276 44.1291C21.1951 44.4039 21.6366 44.4039 21.9042 44.1292L23.7838 42.199C24.1025 41.8718 24.6004 41.8061 25.0102 42.0076C26.603 42.7907 28.3858 43.229 30.2678 43.229C32.109 43.229 33.8553 42.8095 35.4215 42.0581ZM30.2678 41.8274C36.2728 41.8274 41.1409 36.8072 41.1409 30.6145C41.1409 24.4218 36.2728 19.4016 30.2678 19.4016C24.2628 19.4016 19.3948 24.4218 19.3948 30.6145C19.3948 36.8072 24.2628 41.8274 30.2678 41.8274ZM29.5083 30.298V26.5001V22.9409C29.5083 22.5094 29.8581 22.1596 30.2895 22.1596C30.721 22.1596 31.0708 22.5094 31.0708 22.9409V26.5001V30.298V30.8406V31.1226C31.0708 31.5661 30.7113 31.9257 30.2677 31.9257C29.8483 31.9257 29.5083 31.5857 29.5083 31.1663V30.8406V30.298Z" fill="white"/>
<path d="M23.7838 42.199L26.6495 44.9896L23.7838 42.199ZM25.0102 42.0076L26.775 38.418L25.0102 42.0076ZM21.9042 44.1292L19.0385 41.3385L21.9042 44.1292ZM20.9276 43.1781L23.7932 45.9687L20.9276 43.1781ZM38.0843 41.7849L35.2186 44.5756L38.0843 41.7849ZM38.182 40.2333L35.5465 37.2243L38.182 40.2333ZM22.2717 40.1608L19.6097 43.1464L22.2717 40.1608ZM22.3617 41.7054L19.4961 38.9147L22.3617 41.7054ZM39.441 43.1781L42.3067 40.3874L39.441 43.1781ZM38.4644 44.1292L41.3301 41.3385L38.4644 44.1292ZM36.6385 42.2542L33.7728 45.0449L36.6385 42.2542ZM35.4215 42.0581L33.6913 38.4516L35.4215 42.0581ZM33.7728 45.0449L35.5987 46.9198L41.3301 41.3385L39.5042 39.4636L33.7728 45.0449ZM42.3067 40.3874L40.95 38.9942L35.2186 44.5756L36.5753 45.9688L42.3067 40.3874ZM40.8175 43.2423C44.3075 40.1855 46.5 35.6466 46.5 30.6145H38.5C38.5 33.2911 37.3401 35.6534 35.5465 37.2243L40.8175 43.2423ZM46.5 30.6145C46.5 21.5555 39.3478 14 30.2678 14V22C34.6992 22 38.5 25.7399 38.5 30.6145H46.5ZM30.2678 14C21.1879 14 14.0356 21.5555 14.0356 30.6145H22.0356C22.0356 25.7399 25.8365 22 30.2678 22V14ZM14.0356 30.6145C14.0356 35.5943 16.183 40.0912 19.6097 43.1464L24.9336 37.1752C23.1716 35.6042 22.0356 33.2633 22.0356 30.6145H14.0356ZM19.4961 38.9147L18.0619 40.3874L23.7932 45.9687L25.2274 44.496L19.4961 38.9147ZM24.7699 46.9198L26.6495 44.9896L20.9181 39.4083L19.0385 41.3385L24.7699 46.9198ZM23.2454 45.5972C25.3722 46.6429 27.7573 47.229 30.2678 47.229V39.229C29.0143 39.229 27.8337 38.9385 26.775 38.418L23.2454 45.5972ZM30.2678 47.229C32.7236 47.229 35.0598 46.6681 37.1517 45.6645L33.6913 38.4516C32.6508 38.9508 31.4944 39.229 30.2678 39.229V47.229ZM30.2678 45.8274C38.5971 45.8274 45.1409 38.8994 45.1409 30.6145H37.1409C37.1409 34.715 33.9485 37.8274 30.2678 37.8274V45.8274ZM45.1409 30.6145C45.1409 22.3296 38.5971 15.4016 30.2678 15.4016V23.4016C33.9485 23.4016 37.1409 26.514 37.1409 30.6145H45.1409ZM30.2678 15.4016C21.9385 15.4016 15.3948 22.3296 15.3948 30.6145H23.3948C23.3948 26.514 26.5871 23.4016 30.2678 23.4016V15.4016ZM15.3948 30.6145C15.3948 38.8994 21.9385 45.8274 30.2678 45.8274V37.8274C26.5871 37.8274 23.3948 34.715 23.3948 30.6145H15.3948ZM27.0708 30.298V30.8406H35.0708V30.298H27.0708ZM27.0708 30.8406V31.1226H35.0708V30.8406H27.0708ZM33.5083 31.1663V30.8406H25.5083V31.1663H33.5083ZM33.5083 30.8406V30.298H25.5083V30.8406H33.5083ZM33.5083 30.298V26.5001H25.5083V30.298H33.5083ZM33.5083 26.5001V22.9409H25.5083V26.5001H33.5083ZM27.0708 22.9409V26.5001H35.0708V22.9409H27.0708ZM27.0708 26.5001V30.298H35.0708V26.5001H27.0708ZM30.2895 18.1596C27.6489 18.1596 25.5083 20.3003 25.5083 22.9409H33.5083C33.5083 24.7186 32.0672 26.1596 30.2895 26.1596V18.1596ZM27.0708 31.1226C27.0708 29.357 28.5021 27.9257 30.2677 27.9257V35.9257C32.9204 35.9257 35.0708 33.7753 35.0708 31.1226H27.0708ZM26.6495 44.9896C25.6569 46.009 24.2521 46.0922 23.2454 45.5972L26.775 38.418C24.9487 37.52 22.548 37.7346 20.9181 39.4083L26.6495 44.9896ZM18.0619 46.9198C19.8997 48.807 22.9321 48.807 24.7699 46.9198L19.0385 41.3385C20.3412 40.0008 22.4906 40.0008 23.7933 41.3385L18.0619 46.9198ZM18.0619 40.3874C16.2917 42.2051 16.2917 45.1021 18.0619 46.9198L23.7933 41.3385C25.048 42.6269 25.0479 44.6803 23.7932 45.9687L18.0619 40.3874ZM40.95 38.9942C42.2927 40.3731 41.894 42.2994 40.8175 43.2423L35.5465 37.2243C33.5515 38.9717 33.024 42.3219 35.2186 44.5756L40.95 38.9942ZM30.2895 26.1596C28.5119 26.1596 27.0708 24.7186 27.0708 22.9409H35.0708C35.0708 20.3003 32.9302 18.1596 30.2895 18.1596V26.1596ZM19.6097 43.1464C18.5463 42.1983 18.1626 40.2839 19.4961 38.9147L25.2274 44.496C27.4071 42.2577 26.9025 38.9306 24.9336 37.1752L19.6097 43.1464ZM42.3067 46.9198C44.0768 45.1021 44.0768 42.2051 42.3067 40.3874L36.5753 45.9688C35.3206 44.6803 35.3206 42.6269 36.5753 41.3385L42.3067 46.9198ZM35.5987 46.9198C37.4365 48.807 40.4689 48.807 42.3067 46.9198L36.5753 41.3385C37.878 40.0008 40.0274 40.0008 41.3301 41.3385L35.5987 46.9198ZM30.2677 27.9257C32.0574 27.9257 33.5083 29.3765 33.5083 31.1663H25.5083C25.5083 33.7948 27.6391 35.9257 30.2677 35.9257V27.9257ZM39.5042 39.4636C37.8881 37.804 35.5117 37.5783 33.6913 38.4516L37.1517 45.6645C36.148 46.1461 34.757 46.0555 33.7728 45.0449L39.5042 39.4636Z" fill="white" mask="url(#path-9-inside-1_95_37)"/>
<rect x="29.5" y="19" width="4" height="1.5" transform="rotate(-90 29.5 19)" fill="white"/>
<rect x="22.5" y="15" width="15.5" height="1.5" rx="0.75" fill="white"/>
<path d="M80.5684 5.97852H81.9082L85.1758 12.1172L88.0332 5.97852H89.3525L85.5928 13.7715C85.1234 14.7467 84.7383 15.3848 84.4375 15.6855C84.1367 15.9863 83.7061 16.1367 83.1455 16.1367C82.8037 16.1367 82.3844 16.057 81.8877 15.8975V14.7627C82.2432 14.9678 82.6191 15.0703 83.0156 15.0703C83.3392 15.0703 83.6172 14.9678 83.8496 14.7627C84.0866 14.5531 84.3464 14.0791 84.6289 13.3408L80.5684 5.97852ZM94.2471 8.74023V11.8779C94.639 11.8779 94.9147 11.8027 95.0742 11.6523C95.2337 11.502 95.4661 11.0645 95.7715 10.3398C96.0586 9.65169 96.3161 9.21191 96.5439 9.02051C96.7673 8.83366 97.1227 8.74023 97.6104 8.74023H98.0615V9.75879L97.7266 9.75195C97.3984 9.75195 97.1888 9.7998 97.0977 9.89551C97.002 9.99577 96.8561 10.2943 96.6602 10.791C96.4779 11.265 96.3092 11.5931 96.1543 11.7754C95.9993 11.9577 95.7578 12.124 95.4297 12.2744C95.9629 12.4157 96.4824 12.9079 96.9883 13.751L98.3418 16H96.9883L95.6689 13.751C95.4001 13.2952 95.1654 12.9967 94.9648 12.8555C94.7643 12.7142 94.5251 12.6436 94.2471 12.6436V16H92.9893V12.6436C92.7158 12.6436 92.4788 12.7142 92.2783 12.8555C92.0778 12.9922 91.8431 13.2907 91.5742 13.751L90.2549 16H88.9014L90.248 13.751C90.7585 12.9079 91.2803 12.4157 91.8135 12.2744C91.4489 12.1058 91.1937 11.9235 91.0479 11.7275C90.902 11.527 90.6833 11.0531 90.3916 10.3057C90.2913 10.055 90.1842 9.90007 90.0703 9.84082C89.9518 9.78158 89.7764 9.75195 89.5439 9.75195C89.4847 9.75195 89.3639 9.75423 89.1816 9.75879V8.74023H89.3525C89.8265 8.74023 90.1592 8.76986 90.3506 8.8291C90.5465 8.88379 90.7197 9.00456 90.8701 9.19141C91.0251 9.3737 91.2256 9.75651 91.4717 10.3398C91.7725 11.0553 92.0003 11.4906 92.1553 11.6455C92.3148 11.8005 92.5928 11.8779 92.9893 11.8779V8.74023H94.2471ZM104.193 13.6621L105.465 13.8193C105.264 14.5622 104.893 15.1387 104.351 15.5488C103.808 15.959 103.116 16.1641 102.272 16.1641C101.211 16.1641 100.368 15.8382 99.7432 15.1865C99.1234 14.5303 98.8135 13.612 98.8135 12.4316C98.8135 11.2103 99.1279 10.2624 99.7568 9.58789C100.386 8.91341 101.201 8.57617 102.204 8.57617C103.175 8.57617 103.968 8.90658 104.583 9.56738C105.198 10.2282 105.506 11.1579 105.506 12.3564C105.506 12.4294 105.504 12.5387 105.499 12.6846H100.085C100.131 13.4821 100.356 14.0928 100.762 14.5166C101.167 14.9404 101.673 15.1523 102.279 15.1523C102.73 15.1523 103.116 15.0339 103.435 14.7969C103.754 14.5599 104.007 14.1816 104.193 13.6621ZM100.153 11.6729H104.207C104.152 11.0622 103.997 10.6042 103.742 10.2988C103.35 9.82487 102.842 9.58789 102.218 9.58789C101.653 9.58789 101.176 9.77702 100.789 10.1553C100.406 10.5335 100.194 11.0394 100.153 11.6729ZM110.462 8.74023H111.692V10.1143C111.692 10.7067 111.727 11.1374 111.795 11.4062C111.868 11.6706 112.039 11.903 112.308 12.1035C112.576 12.2995 112.914 12.3975 113.319 12.3975C113.784 12.3975 114.386 12.2744 115.124 12.0283V8.74023H116.354V16H115.124V13.0742C114.368 13.3112 113.661 13.4297 113.005 13.4297C112.453 13.4297 111.966 13.2907 111.542 13.0127C111.123 12.7301 110.838 12.3861 110.688 11.9805C110.537 11.5749 110.462 11.1283 110.462 10.6406V8.74023ZM123.184 13.6621L124.455 13.8193C124.255 14.5622 123.883 15.1387 123.341 15.5488C122.799 15.959 122.106 16.1641 121.263 16.1641C120.201 16.1641 119.358 15.8382 118.733 15.1865C118.114 14.5303 117.804 13.612 117.804 12.4316C117.804 11.2103 118.118 10.2624 118.747 9.58789C119.376 8.91341 120.192 8.57617 121.194 8.57617C122.165 8.57617 122.958 8.90658 123.573 9.56738C124.188 10.2282 124.496 11.1579 124.496 12.3564C124.496 12.4294 124.494 12.5387 124.489 12.6846H119.075C119.121 13.4821 119.346 14.0928 119.752 14.5166C120.158 14.9404 120.663 15.1523 121.27 15.1523C121.721 15.1523 122.106 15.0339 122.425 14.7969C122.744 14.5599 122.997 14.1816 123.184 13.6621ZM119.144 11.6729H123.197C123.143 11.0622 122.988 10.6042 122.732 10.2988C122.34 9.82487 121.832 9.58789 121.208 9.58789C120.643 9.58789 120.167 9.77702 119.779 10.1553C119.396 10.5335 119.185 11.0394 119.144 11.6729ZM126.007 18.7822V8.74023H127.128V9.68359C127.392 9.31445 127.691 9.03874 128.023 8.85645C128.356 8.6696 128.759 8.57617 129.233 8.57617C129.853 8.57617 130.4 8.73568 130.874 9.05469C131.348 9.3737 131.706 9.82487 131.947 10.4082C132.189 10.987 132.31 11.6227 132.31 12.3154C132.31 13.0583 132.175 13.7282 131.906 14.3252C131.642 14.9176 131.255 15.3734 130.744 15.6924C130.238 16.0068 129.705 16.1641 129.145 16.1641C128.734 16.1641 128.365 16.0775 128.037 15.9043C127.714 15.7311 127.447 15.5124 127.237 15.248V18.7822H126.007ZM127.121 12.4111C127.121 13.3454 127.31 14.0358 127.688 14.4824C128.067 14.929 128.525 15.1523 129.062 15.1523C129.609 15.1523 130.076 14.9222 130.464 14.4619C130.856 13.9971 131.052 13.2793 131.052 12.3086C131.052 11.3835 130.86 10.6908 130.478 10.2305C130.099 9.77018 129.646 9.54004 129.117 9.54004C128.593 9.54004 128.128 9.78613 127.723 10.2783C127.322 10.766 127.121 11.4769 127.121 12.4111ZM138.77 13.6621L140.041 13.8193C139.84 14.5622 139.469 15.1387 138.927 15.5488C138.384 15.959 137.692 16.1641 136.849 16.1641C135.787 16.1641 134.944 15.8382 134.319 15.1865C133.7 14.5303 133.39 13.612 133.39 12.4316C133.39 11.2103 133.704 10.2624 134.333 9.58789C134.962 8.91341 135.778 8.57617 136.78 8.57617C137.751 8.57617 138.544 8.90658 139.159 9.56738C139.774 10.2282 140.082 11.1579 140.082 12.3564C140.082 12.4294 140.08 12.5387 140.075 12.6846H134.661C134.707 13.4821 134.932 14.0928 135.338 14.5166C135.743 14.9404 136.249 15.1523 136.855 15.1523C137.307 15.1523 137.692 15.0339 138.011 14.7969C138.33 14.5599 138.583 14.1816 138.77 13.6621ZM134.729 11.6729H138.783C138.729 11.0622 138.574 10.6042 138.318 10.2988C137.926 9.82487 137.418 9.58789 136.794 9.58789C136.229 9.58789 135.753 9.77702 135.365 10.1553C134.982 10.5335 134.771 11.0394 134.729 11.6729ZM142.885 12.7188V11.7549C143.404 11.7503 143.757 11.7298 143.944 11.6934C144.136 11.6569 144.316 11.5475 144.484 11.3652C144.653 11.1829 144.737 10.9551 144.737 10.6816C144.737 10.349 144.626 10.0846 144.402 9.88867C144.184 9.68815 143.899 9.58789 143.548 9.58789C142.855 9.58789 142.37 9.99577 142.092 10.8115L140.923 10.6201C141.287 9.25749 142.167 8.57617 143.562 8.57617C144.336 8.57617 144.942 8.78809 145.38 9.21191C145.822 9.63574 146.043 10.1416 146.043 10.7295C146.043 11.3219 145.756 11.7936 145.182 12.1445C145.546 12.3405 145.82 12.5911 146.002 12.8965C146.184 13.1973 146.275 13.555 146.275 13.9697C146.275 14.6214 146.038 15.1501 145.564 15.5557C145.09 15.9613 144.427 16.1641 143.575 16.1641C141.921 16.1641 140.962 15.4281 140.697 13.9561L141.853 13.71C141.957 14.1748 142.169 14.5348 142.488 14.79C142.812 15.0452 143.181 15.1729 143.596 15.1729C144.01 15.1729 144.354 15.0566 144.628 14.8242C144.906 14.5872 145.045 14.2865 145.045 13.9219C145.045 13.6393 144.958 13.3932 144.785 13.1836C144.612 12.974 144.427 12.8441 144.231 12.7939C144.035 12.7393 143.68 12.7119 143.165 12.7119C143.124 12.7119 143.031 12.7142 142.885 12.7188ZM151.635 8.74023H153.549L155.456 14.5508L157.575 8.74023H159.346V16H158.115V10.1553L155.969 16H154.868L152.838 9.875V16H151.635V8.74023ZM166.195 13.6621L167.467 13.8193C167.266 14.5622 166.895 15.1387 166.353 15.5488C165.81 15.959 165.118 16.1641 164.274 16.1641C163.213 16.1641 162.369 15.8382 161.745 15.1865C161.125 14.5303 160.815 13.612 160.815 12.4316C160.815 11.2103 161.13 10.2624 161.759 9.58789C162.388 8.91341 163.203 8.57617 164.206 8.57617C165.177 8.57617 165.97 8.90658 166.585 9.56738C167.2 10.2282 167.508 11.1579 167.508 12.3564C167.508 12.4294 167.506 12.5387 167.501 12.6846H162.087C162.132 13.4821 162.358 14.0928 162.764 14.5166C163.169 14.9404 163.675 15.1523 164.281 15.1523C164.732 15.1523 165.118 15.0339 165.437 14.7969C165.756 14.5599 166.008 14.1816 166.195 13.6621ZM162.155 11.6729H166.209C166.154 11.0622 165.999 10.6042 165.744 10.2988C165.352 9.82487 164.844 9.58789 164.22 9.58789C163.655 9.58789 163.178 9.77702 162.791 10.1553C162.408 10.5335 162.196 11.0394 162.155 11.6729ZM173.756 13.3408L174.966 13.498C174.834 14.332 174.494 14.986 173.947 15.46C173.405 15.9294 172.737 16.1641 171.944 16.1641C170.951 16.1641 170.151 15.8405 169.545 15.1934C168.943 14.5417 168.643 13.6097 168.643 12.3975C168.643 11.6136 168.772 10.9277 169.032 10.3398C169.292 9.75195 169.686 9.31217 170.215 9.02051C170.748 8.72428 171.327 8.57617 171.951 8.57617C172.74 8.57617 173.384 8.77669 173.886 9.17773C174.387 9.57422 174.708 10.1393 174.85 10.873L173.653 11.0576C173.539 10.57 173.337 10.2031 173.045 9.95703C172.758 9.71094 172.409 9.58789 171.999 9.58789C171.379 9.58789 170.876 9.8112 170.488 10.2578C170.101 10.6999 169.907 11.4017 169.907 12.3633C169.907 13.3385 170.094 14.0472 170.468 14.4893C170.841 14.9313 171.329 15.1523 171.931 15.1523C172.414 15.1523 172.817 15.0042 173.141 14.708C173.464 14.4118 173.669 13.9561 173.756 13.3408ZM181.733 8.74023V16H180.51V13.1699H179.799C179.366 13.1699 179.042 13.2269 178.828 13.3408C178.618 13.4502 178.311 13.8079 177.905 14.4141L176.832 16H175.308L176.634 14.0449C177.039 13.4479 177.443 13.1107 177.844 13.0332C177.142 12.9375 176.62 12.6846 176.278 12.2744C175.941 11.8643 175.772 11.3926 175.772 10.8594C175.772 10.2305 175.993 9.72005 176.436 9.32812C176.882 8.9362 177.527 8.74023 178.37 8.74023H181.733ZM180.51 9.75879H178.76C178.026 9.75879 177.552 9.87272 177.338 10.1006C177.128 10.3285 177.023 10.5951 177.023 10.9004C177.023 11.3333 177.178 11.6523 177.488 11.8574C177.803 12.0579 178.356 12.1582 179.149 12.1582H180.51V9.75879ZM183.627 8.74023H184.857V14.9883H188.262V8.74023H189.492V14.9883H190.285V18.0576H189.273V16H183.627V8.74023ZM81.4297 26.7402H82.6602V29.7617H86.0713V26.7402H87.3018V34H86.0713V30.7803H82.6602V34H81.4297V26.7402ZM93.8984 33.1045C93.4427 33.4919 93.0029 33.7653 92.5791 33.9248C92.1598 34.0843 91.7087 34.1641 91.2256 34.1641C90.4281 34.1641 89.8151 33.9704 89.3867 33.583C88.9583 33.1911 88.7441 32.6921 88.7441 32.0859C88.7441 31.7305 88.8239 31.4069 88.9834 31.1152C89.1475 30.819 89.3594 30.582 89.6191 30.4043C89.8835 30.2266 90.1797 30.0921 90.5078 30.001C90.7493 29.9372 91.1139 29.8757 91.6016 29.8164C92.5951 29.6979 93.3265 29.5566 93.7959 29.3926C93.8005 29.224 93.8027 29.1169 93.8027 29.0713C93.8027 28.57 93.6865 28.2168 93.4541 28.0117C93.1396 27.7337 92.6725 27.5947 92.0527 27.5947C91.474 27.5947 91.0456 27.6973 90.7676 27.9023C90.4941 28.1029 90.2913 28.4606 90.1592 28.9756L88.9561 28.8115C89.0654 28.2965 89.2454 27.8818 89.4961 27.5674C89.7467 27.2484 90.109 27.0046 90.583 26.8359C91.057 26.6628 91.6061 26.5762 92.2305 26.5762C92.8503 26.5762 93.3538 26.6491 93.7412 26.7949C94.1286 26.9408 94.4134 27.1253 94.5957 27.3486C94.778 27.5674 94.9056 27.8454 94.9785 28.1826C95.0195 28.3923 95.04 28.7705 95.04 29.3174V30.958C95.04 32.1019 95.0651 32.8265 95.1152 33.1318C95.1699 33.4326 95.2747 33.722 95.4297 34H94.1445C94.0169 33.7448 93.9349 33.4463 93.8984 33.1045ZM93.7959 30.3564C93.3493 30.5387 92.6794 30.6937 91.7861 30.8213C91.2803 30.8942 90.9225 30.9762 90.7129 31.0674C90.5033 31.1585 90.3415 31.293 90.2275 31.4707C90.1136 31.6439 90.0566 31.8376 90.0566 32.0518C90.0566 32.3799 90.1797 32.6533 90.4258 32.8721C90.6764 33.0908 91.041 33.2002 91.5195 33.2002C91.9935 33.2002 92.415 33.0977 92.7842 32.8926C93.1533 32.6829 93.4245 32.3981 93.5977 32.0381C93.7298 31.7601 93.7959 31.3499 93.7959 30.8076V30.3564ZM101.691 31.3408L102.901 31.498C102.769 32.332 102.43 32.986 101.883 33.46C101.34 33.9294 100.673 34.1641 99.8799 34.1641C98.8864 34.1641 98.0866 33.8405 97.4805 33.1934C96.8789 32.5417 96.5781 31.6097 96.5781 30.3975C96.5781 29.6136 96.708 28.9277 96.9678 28.3398C97.2275 27.752 97.6217 27.3122 98.1504 27.0205C98.6836 26.7243 99.2624 26.5762 99.8867 26.5762C100.675 26.5762 101.32 26.7767 101.821 27.1777C102.323 27.5742 102.644 28.1393 102.785 28.873L101.589 29.0576C101.475 28.57 101.272 28.2031 100.98 27.957C100.693 27.7109 100.345 27.5879 99.9346 27.5879C99.3148 27.5879 98.8112 27.8112 98.4238 28.2578C98.0365 28.6999 97.8428 29.4017 97.8428 30.3633C97.8428 31.3385 98.0296 32.0472 98.4033 32.4893C98.777 32.9313 99.2646 33.1523 99.8662 33.1523C100.349 33.1523 100.753 33.0042 101.076 32.708C101.4 32.4118 101.605 31.9561 101.691 31.3408ZM104.556 26.7402H110.271V34H109.047V27.7588H105.786V31.375C105.786 32.2181 105.759 32.7741 105.704 33.043C105.649 33.3118 105.499 33.5465 105.253 33.7471C105.007 33.9476 104.651 34.0479 104.187 34.0479C103.899 34.0479 103.569 34.0296 103.195 33.9932V32.9678H103.735C103.991 32.9678 104.173 32.9427 104.282 32.8926C104.392 32.8379 104.465 32.7536 104.501 32.6396C104.537 32.5257 104.556 32.1543 104.556 31.5254V26.7402ZM116.867 33.1045C116.411 33.4919 115.972 33.7653 115.548 33.9248C115.129 34.0843 114.677 34.1641 114.194 34.1641C113.397 34.1641 112.784 33.9704 112.355 33.583C111.927 33.1911 111.713 32.6921 111.713 32.0859C111.713 31.7305 111.793 31.4069 111.952 31.1152C112.116 30.819 112.328 30.582 112.588 30.4043C112.852 30.2266 113.148 30.0921 113.477 30.001C113.718 29.9372 114.083 29.8757 114.57 29.8164C115.564 29.6979 116.295 29.5566 116.765 29.3926C116.769 29.224 116.771 29.1169 116.771 29.0713C116.771 28.57 116.655 28.2168 116.423 28.0117C116.108 27.7337 115.641 27.5947 115.021 27.5947C114.443 27.5947 114.014 27.6973 113.736 27.9023C113.463 28.1029 113.26 28.4606 113.128 28.9756L111.925 28.8115C112.034 28.2965 112.214 27.8818 112.465 27.5674C112.715 27.2484 113.078 27.0046 113.552 26.8359C114.026 26.6628 114.575 26.5762 115.199 26.5762C115.819 26.5762 116.323 26.6491 116.71 26.7949C117.097 26.9408 117.382 27.1253 117.564 27.3486C117.747 27.5674 117.874 27.8454 117.947 28.1826C117.988 28.3923 118.009 28.7705 118.009 29.3174V30.958C118.009 32.1019 118.034 32.8265 118.084 33.1318C118.139 33.4326 118.243 33.722 118.398 34H117.113C116.986 33.7448 116.904 33.4463 116.867 33.1045ZM116.765 30.3564C116.318 30.5387 115.648 30.6937 114.755 30.8213C114.249 30.8942 113.891 30.9762 113.682 31.0674C113.472 31.1585 113.31 31.293 113.196 31.4707C113.082 31.6439 113.025 31.8376 113.025 32.0518C113.025 32.3799 113.148 32.6533 113.395 32.8721C113.645 33.0908 114.01 33.2002 114.488 33.2002C114.962 33.2002 115.384 33.0977 115.753 32.8926C116.122 32.6829 116.393 32.3981 116.566 32.0381C116.699 31.7601 116.765 31.3499 116.765 30.8076V30.3564ZM124.312 26.7402V29.8779C124.703 29.8779 124.979 29.8027 125.139 29.6523C125.298 29.502 125.531 29.0645 125.836 28.3398C126.123 27.6517 126.381 27.2119 126.608 27.0205C126.832 26.8337 127.187 26.7402 127.675 26.7402H128.126V27.7588L127.791 27.752C127.463 27.752 127.253 27.7998 127.162 27.8955C127.066 27.9958 126.921 28.2943 126.725 28.791C126.542 29.265 126.374 29.5931 126.219 29.7754C126.064 29.9577 125.822 30.124 125.494 30.2744C126.027 30.4157 126.547 30.9079 127.053 31.751L128.406 34H127.053L125.733 31.751C125.465 31.2952 125.23 30.9967 125.029 30.8555C124.829 30.7142 124.59 30.6436 124.312 30.6436V34H123.054V30.6436C122.78 30.6436 122.543 30.7142 122.343 30.8555C122.142 30.9922 121.908 31.2907 121.639 31.751L120.319 34H118.966L120.312 31.751C120.823 30.9079 121.345 30.4157 121.878 30.2744C121.513 30.1058 121.258 29.9235 121.112 29.7275C120.966 29.527 120.748 29.0531 120.456 28.3057C120.356 28.055 120.249 27.9001 120.135 27.8408C120.016 27.7816 119.841 27.752 119.608 27.752C119.549 27.752 119.428 27.7542 119.246 27.7588V26.7402H119.417C119.891 26.7402 120.224 26.7699 120.415 26.8291C120.611 26.8838 120.784 27.0046 120.935 27.1914C121.09 27.3737 121.29 27.7565 121.536 28.3398C121.837 29.0553 122.065 29.4906 122.22 29.6455C122.379 29.8005 122.657 29.8779 123.054 29.8779V26.7402H124.312ZM130.259 26.7402H135.317V32.9883H136.104V36.0576H135.092V34H129.377V36.0576H128.365V32.9883H129.015C129.881 31.8125 130.295 29.7298 130.259 26.7402ZM131.284 27.7588C131.193 30.1149 130.828 31.8581 130.19 32.9883H134.094V27.7588H131.284ZM142.201 33.1045C141.745 33.4919 141.306 33.7653 140.882 33.9248C140.463 34.0843 140.011 34.1641 139.528 34.1641C138.731 34.1641 138.118 33.9704 137.689 33.583C137.261 33.1911 137.047 32.6921 137.047 32.0859C137.047 31.7305 137.127 31.4069 137.286 31.1152C137.45 30.819 137.662 30.582 137.922 30.4043C138.186 30.2266 138.482 30.0921 138.811 30.001C139.052 29.9372 139.417 29.8757 139.904 29.8164C140.898 29.6979 141.629 29.5566 142.099 29.3926C142.103 29.224 142.105 29.1169 142.105 29.0713C142.105 28.57 141.989 28.2168 141.757 28.0117C141.442 27.7337 140.975 27.5947 140.355 27.5947C139.777 27.5947 139.348 27.6973 139.07 27.9023C138.797 28.1029 138.594 28.4606 138.462 28.9756L137.259 28.8115C137.368 28.2965 137.548 27.8818 137.799 27.5674C138.049 27.2484 138.412 27.0046 138.886 26.8359C139.36 26.6628 139.909 26.5762 140.533 26.5762C141.153 26.5762 141.657 26.6491 142.044 26.7949C142.431 26.9408 142.716 27.1253 142.898 27.3486C143.081 27.5674 143.208 27.8454 143.281 28.1826C143.322 28.3923 143.343 28.7705 143.343 29.3174V30.958C143.343 32.1019 143.368 32.8265 143.418 33.1318C143.473 33.4326 143.577 33.722 143.732 34H142.447C142.32 33.7448 142.238 33.4463 142.201 33.1045ZM142.099 30.3564C141.652 30.5387 140.982 30.6937 140.089 30.8213C139.583 30.8942 139.225 30.9762 139.016 31.0674C138.806 31.1585 138.644 31.293 138.53 31.4707C138.416 31.6439 138.359 31.8376 138.359 32.0518C138.359 32.3799 138.482 32.6533 138.729 32.8721C138.979 33.0908 139.344 33.2002 139.822 33.2002C140.296 33.2002 140.718 33.0977 141.087 32.8926C141.456 32.6829 141.727 32.3981 141.9 32.0381C142.033 31.7601 142.099 31.3499 142.099 30.8076V30.3564ZM145.257 26.7402H146.487V32.2773L149.898 26.7402H151.225V34H149.994V28.4971L146.583 34H145.257V26.7402ZM149.529 23.9922H150.37C150.302 24.5618 150.092 24.9993 149.741 25.3047C149.395 25.61 148.932 25.7627 148.354 25.7627C147.77 25.7627 147.303 25.6123 146.952 25.3115C146.606 25.0062 146.398 24.5664 146.33 23.9922H147.171C147.235 24.3021 147.36 24.5345 147.547 24.6895C147.738 24.8398 147.993 24.915 148.312 24.915C148.682 24.915 148.96 24.8421 149.146 24.6963C149.338 24.5459 149.465 24.3112 149.529 23.9922ZM152.414 26.7402H158.313V27.7588H155.976V34H154.752V27.7588H152.414V26.7402ZM164.295 31.6621L165.566 31.8193C165.366 32.5622 164.994 33.1387 164.452 33.5488C163.91 33.959 163.217 34.1641 162.374 34.1641C161.312 34.1641 160.469 33.8382 159.845 33.1865C159.225 32.5303 158.915 31.612 158.915 30.4316C158.915 29.2103 159.229 28.2624 159.858 27.5879C160.487 26.9134 161.303 26.5762 162.306 26.5762C163.276 26.5762 164.069 26.9066 164.685 27.5674C165.3 28.2282 165.607 29.1579 165.607 30.3564C165.607 30.4294 165.605 30.5387 165.601 30.6846H160.187C160.232 31.4821 160.458 32.0928 160.863 32.5166C161.269 32.9404 161.775 33.1523 162.381 33.1523C162.832 33.1523 163.217 33.0339 163.536 32.7969C163.855 32.5599 164.108 32.1816 164.295 31.6621ZM160.255 29.6729H164.309C164.254 29.0622 164.099 28.6042 163.844 28.2988C163.452 27.8249 162.944 27.5879 162.319 27.5879C161.754 27.5879 161.278 27.777 160.891 28.1553C160.508 28.5335 160.296 29.0394 160.255 29.6729ZM171.855 31.3408L173.065 31.498C172.933 32.332 172.594 32.986 172.047 33.46C171.505 33.9294 170.837 34.1641 170.044 34.1641C169.05 34.1641 168.251 33.8405 167.645 33.1934C167.043 32.5417 166.742 31.6097 166.742 30.3975C166.742 29.6136 166.872 28.9277 167.132 28.3398C167.392 27.752 167.786 27.3122 168.314 27.0205C168.848 26.7243 169.426 26.5762 170.051 26.5762C170.839 26.5762 171.484 26.7767 171.985 27.1777C172.487 27.5742 172.808 28.1393 172.949 28.873L171.753 29.0576C171.639 28.57 171.436 28.2031 171.145 27.957C170.857 27.7109 170.509 27.5879 170.099 27.5879C169.479 27.5879 168.975 27.8112 168.588 28.2578C168.201 28.6999 168.007 29.4017 168.007 30.3633C168.007 31.3385 168.194 32.0472 168.567 32.4893C168.941 32.9313 169.429 33.1523 170.03 33.1523C170.513 33.1523 170.917 33.0042 171.24 32.708C171.564 32.4118 171.769 31.9561 171.855 31.3408ZM174.098 26.7402H175.328V29.5771H176.887C177.903 29.5771 178.685 29.7754 179.231 30.1719C179.783 30.5638 180.059 31.1061 180.059 31.7988C180.059 32.4049 179.828 32.9245 179.368 33.3574C178.912 33.7858 178.181 34 177.174 34H174.098V26.7402ZM175.328 32.9883H176.62C177.399 32.9883 177.955 32.8926 178.288 32.7012C178.621 32.5098 178.787 32.2113 178.787 31.8057C178.787 31.4912 178.664 31.2109 178.418 30.9648C178.172 30.7188 177.627 30.5957 176.784 30.5957H175.328V32.9883ZM185.315 26.7402H186.546V32.2773L189.957 26.7402H191.283V34H190.053V28.4971L186.642 34H185.315V26.7402ZM194.742 30.7188V29.7549C195.262 29.7503 195.615 29.7298 195.802 29.6934C195.993 29.6569 196.173 29.5475 196.342 29.3652C196.51 29.1829 196.595 28.9551 196.595 28.6816C196.595 28.349 196.483 28.0846 196.26 27.8887C196.041 27.6882 195.756 27.5879 195.405 27.5879C194.713 27.5879 194.227 27.9958 193.949 28.8115L192.78 28.6201C193.145 27.2575 194.024 26.5762 195.419 26.5762C196.194 26.5762 196.8 26.7881 197.237 27.2119C197.679 27.6357 197.9 28.1416 197.9 28.7295C197.9 29.3219 197.613 29.7936 197.039 30.1445C197.404 30.3405 197.677 30.5911 197.859 30.8965C198.042 31.1973 198.133 31.555 198.133 31.9697C198.133 32.6214 197.896 33.1501 197.422 33.5557C196.948 33.9613 196.285 34.1641 195.433 34.1641C193.778 34.1641 192.819 33.4281 192.555 31.9561L193.71 31.71C193.815 32.1748 194.027 32.5348 194.346 32.79C194.669 33.0452 195.038 33.1729 195.453 33.1729C195.868 33.1729 196.212 33.0566 196.485 32.8242C196.763 32.5872 196.902 32.2865 196.902 31.9219C196.902 31.6393 196.816 31.3932 196.643 31.1836C196.469 30.974 196.285 30.8441 196.089 30.7939C195.893 30.7393 195.537 30.7119 195.022 30.7119C194.981 30.7119 194.888 30.7142 194.742 30.7188ZM199.596 26.7402H201.51L203.417 32.5508L205.536 26.7402H207.307V34H206.076V28.1553L203.93 34H202.829L200.799 27.875V34H199.596V26.7402ZM214.156 31.6621L215.428 31.8193C215.227 32.5622 214.856 33.1387 214.313 33.5488C213.771 33.959 213.078 34.1641 212.235 34.1641C211.174 34.1641 210.33 33.8382 209.706 33.1865C209.086 32.5303 208.776 31.612 208.776 30.4316C208.776 29.2103 209.091 28.2624 209.72 27.5879C210.349 26.9134 211.164 26.5762 212.167 26.5762C213.138 26.5762 213.931 26.9066 214.546 27.5674C215.161 28.2282 215.469 29.1579 215.469 30.3564C215.469 30.4294 215.466 30.5387 215.462 30.6846H210.048C210.093 31.4821 210.319 32.0928 210.725 32.5166C211.13 32.9404 211.636 33.1523 212.242 33.1523C212.693 33.1523 213.078 33.0339 213.397 32.7969C213.716 32.5599 213.969 32.1816 214.156 31.6621ZM210.116 29.6729H214.17C214.115 29.0622 213.96 28.6042 213.705 28.2988C213.313 27.8249 212.805 27.5879 212.181 27.5879C211.616 27.5879 211.139 27.777 210.752 28.1553C210.369 28.5335 210.157 29.0394 210.116 29.6729ZM216.986 26.7402H218.217V29.7617H221.628V26.7402H222.858V34H221.628V30.7803H218.217V34H216.986V26.7402ZM229.688 31.6621L230.959 31.8193C230.758 32.5622 230.387 33.1387 229.845 33.5488C229.302 33.959 228.61 34.1641 227.767 34.1641C226.705 34.1641 225.862 33.8382 225.237 33.1865C224.618 32.5303 224.308 31.612 224.308 30.4316C224.308 29.2103 224.622 28.2624 225.251 27.5879C225.88 26.9134 226.696 26.5762 227.698 26.5762C228.669 26.5762 229.462 26.9066 230.077 27.5674C230.692 28.2282 231 29.1579 231 30.3564C231 30.4294 230.998 30.5387 230.993 30.6846H225.579C225.625 31.4821 225.85 32.0928 226.256 32.5166C226.661 32.9404 227.167 33.1523 227.773 33.1523C228.225 33.1523 228.61 33.0339 228.929 32.7969C229.248 32.5599 229.501 32.1816 229.688 31.6621ZM225.647 29.6729H229.701C229.646 29.0622 229.492 28.6042 229.236 28.2988C228.844 27.8249 228.336 27.5879 227.712 27.5879C227.147 27.5879 226.671 27.777 226.283 28.1553C225.9 28.5335 225.688 29.0394 225.647 29.6729ZM232.518 26.7402H233.748V29.7617H237.159V26.7402H238.39V34H237.159V30.7803H233.748V34H232.518V26.7402ZM240.249 26.7402H241.479V32.2773L244.891 26.7402H246.217V34H244.986V28.4971L241.575 34H240.249V26.7402ZM253.784 26.7402V34H252.561V31.1699H251.85C251.417 31.1699 251.093 31.2269 250.879 31.3408C250.669 31.4502 250.362 31.8079 249.956 32.4141L248.883 34H247.358L248.685 32.0449C249.09 31.4479 249.493 31.1107 249.895 31.0332C249.193 30.9375 248.671 30.6846 248.329 30.2744C247.992 29.8643 247.823 29.3926 247.823 28.8594C247.823 28.2305 248.044 27.7201 248.486 27.3281C248.933 26.9362 249.578 26.7402 250.421 26.7402H253.784ZM252.561 27.7588H250.811C250.077 27.7588 249.603 27.8727 249.389 28.1006C249.179 28.3285 249.074 28.5951 249.074 28.9004C249.074 29.3333 249.229 29.6523 249.539 29.8574C249.854 30.0579 250.407 30.1582 251.2 30.1582H252.561V27.7588ZM255.691 26.7402H257.605L259.513 32.5508L261.632 26.7402H263.402V34H262.172V28.1553L260.025 34H258.925L256.895 27.875V34H255.691V26.7402ZM265.282 26.7402H266.513V32.2773L269.924 26.7402H271.25V34H270.02V28.4971L266.608 34H265.282V26.7402ZM81.416 44.7402H82.6465V47.8779C83.0384 47.8779 83.3118 47.8027 83.4668 47.6523C83.6263 47.502 83.8587 47.0645 84.1641 46.3398C84.4056 45.7656 84.6016 45.3874 84.752 45.2051C84.9023 45.0228 85.0755 44.8997 85.2715 44.8359C85.4674 44.7721 85.7819 44.7402 86.2148 44.7402H86.4609V45.7588L86.1191 45.752C85.7956 45.752 85.5882 45.7998 85.4971 45.8955C85.4014 45.9958 85.2555 46.2943 85.0596 46.791C84.8727 47.265 84.7018 47.5931 84.5469 47.7754C84.3919 47.9577 84.1527 48.124 83.8291 48.2744C84.3577 48.4157 84.8773 48.9079 85.3877 49.751L86.7344 52H85.3809L84.0684 49.751C83.7995 49.2998 83.5648 49.0036 83.3643 48.8623C83.1637 48.7165 82.9245 48.6436 82.6465 48.6436V52H81.416V44.7402ZM92.0459 44.7402H97.7607V52H96.5371V45.7588H93.2764V49.375C93.2764 50.2181 93.249 50.7741 93.1943 51.043C93.1396 51.3118 92.9893 51.5465 92.7432 51.7471C92.4971 51.9476 92.1416 52.0479 91.6768 52.0479C91.3896 52.0479 91.0592 52.0296 90.6855 51.9932V50.9678H91.2256C91.4808 50.9678 91.6631 50.9427 91.7725 50.8926C91.8818 50.8379 91.9548 50.7536 91.9912 50.6396C92.0277 50.5257 92.0459 50.1543 92.0459 49.5254V44.7402ZM99.5654 54.7959L99.4287 53.6406C99.6976 53.7135 99.9323 53.75 100.133 53.75C100.406 53.75 100.625 53.7044 100.789 53.6133C100.953 53.5221 101.088 53.3945 101.192 53.2305C101.27 53.1074 101.395 52.8021 101.568 52.3145C101.591 52.2461 101.628 52.1458 101.678 52.0137L98.9229 44.7402H100.249L101.76 48.9443C101.956 49.4775 102.131 50.0381 102.286 50.626C102.427 50.0609 102.596 49.5094 102.792 48.9717L104.344 44.7402H105.574L102.812 52.123C102.516 52.9206 102.286 53.4697 102.122 53.7705C101.903 54.1761 101.653 54.4723 101.37 54.6592C101.088 54.8506 100.75 54.9463 100.358 54.9463C100.121 54.9463 99.8571 54.8962 99.5654 54.7959ZM106.169 44.7402H107.399V46.1143C107.399 46.7067 107.434 47.1374 107.502 47.4062C107.575 47.6706 107.746 47.903 108.015 48.1035C108.284 48.2995 108.621 48.3975 109.026 48.3975C109.491 48.3975 110.093 48.2744 110.831 48.0283V44.7402H112.062V52H110.831V49.0742C110.075 49.3112 109.368 49.4297 108.712 49.4297C108.16 49.4297 107.673 49.2907 107.249 49.0127C106.83 48.7301 106.545 48.3861 106.395 47.9805C106.244 47.5749 106.169 47.1283 106.169 46.6406V44.7402ZM113.962 44.7402H115.192V50.9814H117.995V44.7402H119.226V50.9814H122.035V44.7402H123.259V52H113.962V44.7402ZM130.129 49.6621L131.4 49.8193C131.2 50.5622 130.828 51.1387 130.286 51.5488C129.744 51.959 129.051 52.1641 128.208 52.1641C127.146 52.1641 126.303 51.8382 125.679 51.1865C125.059 50.5303 124.749 49.612 124.749 48.4316C124.749 47.2103 125.063 46.2624 125.692 45.5879C126.321 44.9134 127.137 44.5762 128.14 44.5762C129.11 44.5762 129.903 44.9066 130.519 45.5674C131.134 46.2282 131.441 47.1579 131.441 48.3564C131.441 48.4294 131.439 48.5387 131.435 48.6846H126.021C126.066 49.4821 126.292 50.0928 126.697 50.5166C127.103 50.9404 127.609 51.1523 128.215 51.1523C128.666 51.1523 129.051 51.0339 129.37 50.7969C129.689 50.5599 129.942 50.1816 130.129 49.6621ZM126.089 47.6729H130.143C130.088 47.0622 129.933 46.6042 129.678 46.2988C129.286 45.8249 128.778 45.5879 128.153 45.5879C127.588 45.5879 127.112 45.777 126.725 46.1553C126.342 46.5335 126.13 47.0394 126.089 47.6729ZM132.986 44.7402H134.9L136.808 50.5508L138.927 44.7402H140.697V52H139.467V46.1553L137.32 52H136.22L134.189 45.875V52H132.986V44.7402ZM142.687 54.7959L142.55 53.6406C142.819 53.7135 143.053 53.75 143.254 53.75C143.527 53.75 143.746 53.7044 143.91 53.6133C144.074 53.5221 144.209 53.3945 144.313 53.2305C144.391 53.1074 144.516 52.8021 144.689 52.3145C144.712 52.2461 144.749 52.1458 144.799 52.0137L142.044 44.7402H143.37L144.881 48.9443C145.077 49.4775 145.252 50.0381 145.407 50.626C145.549 50.0609 145.717 49.5094 145.913 48.9717L147.465 44.7402H148.695L145.934 52.123C145.637 52.9206 145.407 53.4697 145.243 53.7705C145.024 54.1761 144.774 54.4723 144.491 54.6592C144.209 54.8506 143.871 54.9463 143.479 54.9463C143.243 54.9463 142.978 54.8962 142.687 54.7959ZM153.645 44.7402H156.481C157.179 44.7402 157.696 44.7995 158.033 44.918C158.375 45.0319 158.667 45.2438 158.908 45.5537C159.154 45.8636 159.277 46.235 159.277 46.668C159.277 47.0143 159.204 47.3174 159.059 47.5771C158.917 47.8324 158.703 48.0465 158.416 48.2197C158.758 48.3337 159.04 48.5479 159.264 48.8623C159.492 49.1722 159.605 49.5413 159.605 49.9697C159.56 50.6579 159.314 51.1683 158.867 51.501C158.421 51.8337 157.771 52 156.919 52H153.645V44.7402ZM154.875 47.7959H156.188C156.712 47.7959 157.072 47.7686 157.268 47.7139C157.464 47.6592 157.639 47.5498 157.794 47.3857C157.949 47.2171 158.026 47.0166 158.026 46.7842C158.026 46.4014 157.89 46.1348 157.616 45.9844C157.347 45.834 156.885 45.7588 156.229 45.7588H154.875V47.7959ZM154.875 50.9883H156.495C157.192 50.9883 157.671 50.9085 157.931 50.749C158.19 50.585 158.327 50.3047 158.341 49.9082C158.341 49.6758 158.266 49.4616 158.115 49.2656C157.965 49.0651 157.769 48.9398 157.527 48.8896C157.286 48.835 156.898 48.8076 156.365 48.8076H154.875V50.9883ZM165.648 51.1045C165.193 51.4919 164.753 51.7653 164.329 51.9248C163.91 52.0843 163.459 52.1641 162.976 52.1641C162.178 52.1641 161.565 51.9704 161.137 51.583C160.708 51.1911 160.494 50.6921 160.494 50.0859C160.494 49.7305 160.574 49.4069 160.733 49.1152C160.897 48.819 161.109 48.582 161.369 48.4043C161.633 48.2266 161.93 48.0921 162.258 48.001C162.499 47.9372 162.864 47.8757 163.352 47.8164C164.345 47.6979 165.076 47.5566 165.546 47.3926C165.55 47.224 165.553 47.1169 165.553 47.0713C165.553 46.57 165.437 46.2168 165.204 46.0117C164.89 45.7337 164.423 45.5947 163.803 45.5947C163.224 45.5947 162.796 45.6973 162.518 45.9023C162.244 46.1029 162.041 46.4606 161.909 46.9756L160.706 46.8115C160.815 46.2965 160.995 45.8818 161.246 45.5674C161.497 45.2484 161.859 45.0046 162.333 44.8359C162.807 44.6628 163.356 44.5762 163.98 44.5762C164.6 44.5762 165.104 44.6491 165.491 44.7949C165.879 44.9408 166.163 45.1253 166.346 45.3486C166.528 45.5674 166.656 45.8454 166.729 46.1826C166.77 46.3923 166.79 46.7705 166.79 47.3174V48.958C166.79 50.1019 166.815 50.8265 166.865 51.1318C166.92 51.4326 167.025 51.722 167.18 52H165.895C165.767 51.7448 165.685 51.4463 165.648 51.1045ZM165.546 48.3564C165.099 48.5387 164.429 48.6937 163.536 48.8213C163.03 48.8942 162.673 48.9762 162.463 49.0674C162.253 49.1585 162.091 49.293 161.978 49.4707C161.864 49.6439 161.807 49.8376 161.807 50.0518C161.807 50.3799 161.93 50.6533 162.176 50.8721C162.426 51.0908 162.791 51.2002 163.27 51.2002C163.743 51.2002 164.165 51.0977 164.534 50.8926C164.903 50.6829 165.174 50.3981 165.348 50.0381C165.48 49.7601 165.546 49.3499 165.546 48.8076V48.3564ZM168.745 44.7402H169.976V50.9814H172.778V44.7402H174.009V50.9814H176.818V44.7402H178.042V52H168.745V44.7402ZM184.912 49.6621L186.184 49.8193C185.983 50.5622 185.612 51.1387 185.069 51.5488C184.527 51.959 183.834 52.1641 182.991 52.1641C181.929 52.1641 181.086 51.8382 180.462 51.1865C179.842 50.5303 179.532 49.612 179.532 48.4316C179.532 47.2103 179.847 46.2624 180.476 45.5879C181.104 44.9134 181.92 44.5762 182.923 44.5762C183.894 44.5762 184.687 44.9066 185.302 45.5674C185.917 46.2282 186.225 47.1579 186.225 48.3564C186.225 48.4294 186.222 48.5387 186.218 48.6846H180.804C180.849 49.4821 181.075 50.0928 181.48 50.5166C181.886 50.9404 182.392 51.1523 182.998 51.1523C183.449 51.1523 183.834 51.0339 184.153 50.7969C184.472 50.5599 184.725 50.1816 184.912 49.6621ZM180.872 47.6729H184.926C184.871 47.0622 184.716 46.6042 184.461 46.2988C184.069 45.8249 183.561 45.5879 182.937 45.5879C182.371 45.5879 181.895 45.777 181.508 46.1553C181.125 46.5335 180.913 47.0394 180.872 47.6729ZM187.742 44.7402H191.919V45.7588H188.973V52H187.742V44.7402ZM192.076 48.3701C192.076 47.0257 192.45 46.0299 193.197 45.3828C193.822 44.8451 194.583 44.5762 195.48 44.5762C196.479 44.5762 197.294 44.9043 197.928 45.5605C198.561 46.2122 198.878 47.1146 198.878 48.2676C198.878 49.2018 198.737 49.9378 198.454 50.4756C198.176 51.0088 197.768 51.4235 197.23 51.7197C196.697 52.016 196.114 52.1641 195.48 52.1641C194.464 52.1641 193.642 51.8382 193.013 51.1865C192.388 50.5348 192.076 49.596 192.076 48.3701ZM193.341 48.3701C193.341 49.2998 193.544 49.9971 193.949 50.4619C194.355 50.9222 194.865 51.1523 195.48 51.1523C196.091 51.1523 196.599 50.9199 197.005 50.4551C197.41 49.9902 197.613 49.2816 197.613 48.3291C197.613 47.4313 197.408 46.7523 196.998 46.292C196.592 45.8271 196.087 45.5947 195.48 45.5947C194.865 45.5947 194.355 45.8249 193.949 46.2852C193.544 46.7454 193.341 47.4404 193.341 48.3701ZM204.23 44.7402H209.959V52H208.729V45.7588H205.461V52H204.23V44.7402ZM211.812 44.7402H213.042V50.2773L216.453 44.7402H217.779V52H216.549V46.4971L213.138 52H211.812V44.7402ZM218.969 44.7402H224.868V45.7588H222.53V52H221.307V45.7588H218.969V44.7402ZM225.422 48.3701C225.422 47.0257 225.796 46.0299 226.543 45.3828C227.167 44.8451 227.928 44.5762 228.826 44.5762C229.824 44.5762 230.64 44.9043 231.273 45.5605C231.907 46.2122 232.224 47.1146 232.224 48.2676C232.224 49.2018 232.082 49.9378 231.8 50.4756C231.522 51.0088 231.114 51.4235 230.576 51.7197C230.043 52.016 229.46 52.1641 228.826 52.1641C227.81 52.1641 226.987 51.8382 226.358 51.1865C225.734 50.5348 225.422 49.596 225.422 48.3701ZM226.687 48.3701C226.687 49.2998 226.889 49.9971 227.295 50.4619C227.701 50.9222 228.211 51.1523 228.826 51.1523C229.437 51.1523 229.945 50.9199 230.351 50.4551C230.756 49.9902 230.959 49.2816 230.959 48.3291C230.959 47.4313 230.754 46.7523 230.344 46.292C229.938 45.8271 229.432 45.5947 228.826 45.5947C228.211 45.5947 227.701 45.8249 227.295 46.2852C226.889 46.7454 226.687 47.4404 226.687 48.3701ZM233.707 44.7402H235.621L237.528 50.5508L239.647 44.7402H241.418V52H240.188V46.1553L238.041 52H236.94L234.91 45.875V52H233.707V44.7402ZM243.318 44.7402H244.549V50.9883H247.953V44.7402H249.184V50.9883H249.977V54.0576H248.965V52H243.318V44.7402ZM256.061 51.1045C255.605 51.4919 255.165 51.7653 254.741 51.9248C254.322 52.0843 253.871 52.1641 253.388 52.1641C252.59 52.1641 251.977 51.9704 251.549 51.583C251.12 51.1911 250.906 50.6921 250.906 50.0859C250.906 49.7305 250.986 49.4069 251.146 49.1152C251.31 48.819 251.521 48.582 251.781 48.4043C252.046 48.2266 252.342 48.0921 252.67 48.001C252.911 47.9372 253.276 47.8757 253.764 47.8164C254.757 47.6979 255.489 47.5566 255.958 47.3926C255.963 47.224 255.965 47.1169 255.965 47.0713C255.965 46.57 255.849 46.2168 255.616 46.0117C255.302 45.7337 254.835 45.5947 254.215 45.5947C253.636 45.5947 253.208 45.6973 252.93 45.9023C252.656 46.1029 252.453 46.4606 252.321 46.9756L251.118 46.8115C251.228 46.2965 251.408 45.8818 251.658 45.5674C251.909 45.2484 252.271 45.0046 252.745 44.8359C253.219 44.6628 253.768 44.5762 254.393 44.5762C255.012 44.5762 255.516 44.6491 255.903 44.7949C256.291 44.9408 256.576 45.1253 256.758 45.3486C256.94 45.5674 257.068 45.8454 257.141 46.1826C257.182 46.3923 257.202 46.7705 257.202 47.3174V48.958C257.202 50.1019 257.227 50.8265 257.277 51.1318C257.332 51.4326 257.437 51.722 257.592 52H256.307C256.179 51.7448 256.097 51.4463 256.061 51.1045ZM255.958 48.3564C255.511 48.5387 254.841 48.6937 253.948 48.8213C253.442 48.8942 253.085 48.9762 252.875 49.0674C252.665 49.1585 252.504 49.293 252.39 49.4707C252.276 49.6439 252.219 49.8376 252.219 50.0518C252.219 50.3799 252.342 50.6533 252.588 50.8721C252.839 51.0908 253.203 51.2002 253.682 51.2002C254.156 51.2002 254.577 51.0977 254.946 50.8926C255.315 50.6829 255.587 50.3981 255.76 50.0381C255.892 49.7601 255.958 49.3499 255.958 48.8076V48.3564ZM259.772 49.5117L259.396 44.2002V41.9785H260.921V44.2002L260.565 49.5117H259.772ZM259.451 52V50.5986H260.866V52H259.451Z" fill="#444444"/>
</svg>
